<svg id="Layer_1" data-name="Layer 1" xmlns="http://www.w3.org/2000/svg" xmlns:xlink="http://www.w3.org/1999/xlink" viewBox="0 0 92.85 107.53"><defs><style>.cls-1,.cls-10,.cls-11,.cls-2,.cls-3,.cls-4,.cls-5,.cls-6,.cls-7,.cls-8,.cls-9{stroke:#000;stroke-miterlimit:10;}.cls-1{fill:url(#linear-gradient);}.cls-2{fill:url(#Vanusa_2);}.cls-3{fill:url(#linear-gradient-2);}.cls-4{fill:url(#Vanusa_2-2);}.cls-5{fill:url(#linear-gradient-3);}.cls-6{fill:url(#Vanusa_2-3);}.cls-7{fill:url(#Vanusa_2-4);}.cls-8{fill:url(#Vanusa_2-5);}.cls-9{fill:url(#Vanusa_2-6);}.cls-10{fill:url(#Vanusa_2-7);}.cls-11{fill:url(#Vanusa_2-8);}</style><linearGradient id="linear-gradient" x1="216.54" y1="191.61" x2="190.62" y2="247.2" gradientUnits="userSpaceOnUse"><stop offset="0" stop-color="#89216b"/><stop offset="1" stop-color="#da4453"/></linearGradient><linearGradient id="Vanusa_2" x1="183.79" y1="243.68" x2="199.83" y2="256.67" xlink:href="#linear-gradient"/><linearGradient id="linear-gradient-2" x1="229.56" y1="220.66" x2="275.44" y2="220.66" xlink:href="#linear-gradient"/><linearGradient id="Vanusa_2-2" x1="266.72" y1="250.57" x2="275.44" y2="250.57" xlink:href="#linear-gradient"/><linearGradient id="linear-gradient-3" x1="33.31" y1="40.6" x2="59.62" y2="40.6" xlink:href="#linear-gradient"/><linearGradient id="Vanusa_2-3" x1="56.75" y1="68.35" x2="61.91" y2="68.35" xlink:href="#linear-gradient"/><linearGradient id="Vanusa_2-4" x1="46.42" y1="77.51" x2="51.59" y2="77.51" xlink:href="#linear-gradient"/><linearGradient id="Vanusa_2-5" x1="41.26" y1="77.44" x2="46.42" y2="77.44" xlink:href="#linear-gradient"/><linearGradient id="Vanusa_2-6" x1="30.94" y1="68.3" x2="36.1" y2="68.3" xlink:href="#linear-gradient"/><linearGradient id="Vanusa_2-7" x1="229.55" y1="240.14" x2="252.47" y2="240.14" xlink:href="#linear-gradient"/><linearGradient id="Vanusa_2-8" x1="206.56" y1="240.09" x2="229.51" y2="240.09" xlink:href="#linear-gradient"/></defs><path class="cls-1" d="M229.51,197.9v.1l-10.32,10.32-2.79,2.79L214,213.48l-3.12,3.12-18.6,18.6-2.22,2.22-6.5,6.5V230.79a12.32,12.32,0,0,1,6.15-10.65l2.57-1.48,3.38-2,13.18-7.6,2-1.18,1.46-.84,1.66-1,5.16-3,5.16-3,4.7-2.72Z" transform="translate(-183.09 -196.82)"/><path class="cls-2" d="M192.31,235.2V266l-2.22-2.23-2.6-2.6a13.25,13.25,0,0,1-3.9-9.39v-7.81l6.5-6.5Z" transform="translate(-183.09 -196.82)"/><path class="cls-3" d="M275.44,230.79v13L269,237.41l-2.3-2.3L245,213.39l-2.29-2.29-2.87-2.87L229.56,198l.47-.47,4.65,2.68,5.16,3,5.16,3,1.71,1,1.41.81,2,1.18,13.23,7.64,3.33,1.92,2.57,1.48A12.3,12.3,0,0,1,275.44,230.79Z" transform="translate(-183.09 -196.82)"/><path class="cls-4" d="M275.44,243.83v8a13.28,13.28,0,0,1-3.89,9.39L269,263.73l-2.3,2.3V235.11l2.3,2.3Z" transform="translate(-183.09 -196.82)"/><polygon class="cls-5" points="59.62 40.6 56.75 43.48 46.47 53.76 36.1 43.38 33.31 40.59 36.1 37.81 46.42 27.5 46.46 27.45 59.62 40.6"/><polygon class="cls-6" points="61.91 42.9 61.91 90.94 56.75 96.09 56.75 43.48 59.62 40.6 61.91 42.9"/><polygon class="cls-7" points="51.59 48.63 51.59 101.25 46.47 106.38 46.42 106.33 46.42 80.11 46.61 79.92 46.42 80.03 46.42 53.8 51.59 48.63"/><polygon class="cls-8" points="46.42 53.7 46.42 106.33 41.26 101.17 41.26 48.55 46.42 53.7"/><polygon class="cls-9" points="36.1 43.38 36.1 96 33.31 93.22 30.94 90.84 30.94 42.97 33.31 40.59 36.1 43.38"/><path class="cls-10" d="M252.47,239.75V254l-2.31,2.31V244.87l-20.61-20.61.27-.26,4.86,2.81,5.16,3,5.16,3,1.5.86,1.62.94,2,1.18h0A4.61,4.61,0,0,1,252.47,239.75Z" transform="translate(-183.09 -196.82)"/><path class="cls-11" d="M229.51,224.22v.09l-10.32,10.32-2.79,2.78-7.53,7.53V256.2l-2.31-2.31V239.75a4.61,4.61,0,0,1,2.31-4h0l2-1.18,1.68-1,1.44-.84,5.16-3,5.16-3,4.91-2.83Z" transform="translate(-183.09 -196.82)"/></svg>