<svg xmlns="http://www.w3.org/2000/svg" width="86" height="43"><path data-name="Path 35373" d="M.871 43a.834.834 0 01-.868-.824 40.509 40.509 0 017.636-23.56.868.868 0 111.388 1.042 39.137 39.137 0 00-7.289 22.475.844.844 0 01-.868.868z" fill="#ef5450"/><path data-name="Path 35374" d="M85.129 42.999a.88.88 0 01-.868-.911 39.525 39.525 0 00-7.289-22.475.868.868 0 111.388-1.041 40.509 40.509 0 017.636 23.56.869.869 0 01-.867.867z" fill="#31baa0"/><path data-name="Path 35375" d="M9.723 18.113a.953.953 0 01-.564-.173.846.846 0 01-.13-1.215 52.457 52.457 0 015.858-5.944c4.773-4.209 9.372-6.9 13.711-8.07a.853.853 0 11.434 1.649c-9.719 2.56-18.57 13.32-18.657 13.451a.848.848 0 01-.652.302z" fill="#f59896"/><path data-name="Path 35376" d="M76.233 18.114a1.025 1.025 0 01-.694-.3c-.087-.087-8.938-10.847-18.657-13.45a.853.853 0 11.434-1.649c4.339 1.128 8.938 3.862 13.711 8.07a62.332 62.332 0 015.857 5.944.842.842 0 01-.13 1.215.929.929 0 01-.521.17z" fill="#8ff0cb"/><path data-name="Path 35377" d="M55.036 3.621a.738.738 0 01-.3-.043c-11.108-4.078-23.256-.043-23.387 0a.829.829 0 01-1.085-.564.838.838 0 01.521-1.085c.521-.173 12.843-4.252 24.558 0a.872.872 0 01-.3 1.692z" fill="#d1d4dc"/></svg>